ik_tiny_file
version=1
nRows=16
nColumns=40
inDegrees=yes
endheader
time	pelvis_tilt	pelvis_list	pelvis_rotation	pelvis_tx	pelvis_ty	pelvis_tz	hip_flexion_r	hip_adduction_r	hip_rotation_r	knee_angle_r	knee_angle_r_beta	ankle_angle_r	subtalar_angle_r	mtp_angle_r	hip_flexion_l	hip_adduction_l	hip_rotation_l	knee_angle_l	knee_angle_l_beta	ankle_angle_l	subtalar_angle_l	mtp_angle_l	lumbar_extension	lumbar_bending	lumbar_rotation	arm_flex_r	arm_add_r	arm_rot_r	elbow_flex_r	pro_sup_r	wrist_flex_r	wrist_dev_r	arm_flex_l	arm_add_l	arm_rot_l	elbow_flex_l	pro_sup_l	wrist_flex_l	wrist_dev_l
      3.04000000	     95.41154000	      2.24552477	      5.02752130	      0.00000000	      0.94000000	      0.00000000	     33.33325340	     -9.69820166	      0.00000000	     44.27372439	      0.77272226	     -4.03766567	      0.00000000	      0.00000000	     33.33325340	     -9.69820166	      0.00000000	     44.27372439	      0.77272226	     -4.03766567	      0.00000000	      0.00000000	    -89.96904193	     10.64278625	      7.21974256	    -89.92317393	     16.64183662	    -20.47780900	     98.94706205	     42.88119894	      0.00000000	      4.97552146	     -3.20046285	      5.96969819	      8.14566405	      0.15431945	     42.88119894	      0.00000000	      4.97552146
      3.06000000	     95.41980852	      2.13271966	      5.03690622	      0.00000000	      0.94000000	      0.00000000	     33.34089958	     -9.69887802	      0.00000000	     44.28217631	      0.77286978	     -4.03851984	      0.00000000	      0.00000000	     33.34089958	     -9.69887802	      0.00000000	     44.28217631	      0.77286978	     -4.03851984	      0.00000000	      0.00000000	    -89.96873372	     10.70093789	      7.26126580	    -89.91961453	     17.96039876	    -20.43359680	    102.36252228	     42.88496158	      0.00000000	      4.97561879	     -3.26328228	      6.03943618	      8.27089276	      0.15511233	     42.88496158	      0.00000000	      4.97561879
      3.08000000	     95.46286334	      2.03834869	      5.03822513	      0.00000000	      0.94000000	      0.00000000	     33.34833320	     -9.69953401	      0.00000000	     44.29039928	      0.77301329	     -4.03934992	      0.00000000	      0.00000000	     33.34833320	     -9.69953401	      0.00000000	     44.29039928	      0.77301329	     -4.03934992	      0.00000000	      0.00000000	    -89.96843844	     10.73474777	      7.19803828	    -89.91556852	     19.68791078	    -19.80236653	    106.35306907	     42.88861307	      0.00000000	      4.97571298	     -3.31028544	      6.04304566	      8.27512720	      0.15654225	     42.88861307	      0.00000000	      4.97571298
      3.10000000	     95.52029456	      1.95899160	      5.04311161	      0.00000000	      0.94000000	      0.00000000	     33.35708427	     -9.70030531	      0.00000000	     44.30007702	      0.77318220	     -4.04032700	      0.00000000	      0.00000000	     33.35708427	     -9.70030531	      0.00000000	     44.30007702	      0.77318220	     -4.04032700	      0.00000000	      0.00000000	    -89.96806248	     10.77448907	      7.17698502	    -89.91033150	     21.44515812	    -19.26091236	    110.34429709	     42.89290824	      0.00000000	      4.97582355	     -3.38153615	      6.01587646	      8.30542753	      0.15767849	     42.89290824	      0.00000000	      4.97582355
      3.12000000	     95.58501325	      1.90672366	      5.06105376	      0.00000000	      0.94000000	      0.00000000	     33.36105338	     -9.70065306	      0.00000000	     44.30448160	      0.77325908	     -4.04076960	      0.00000000	      0.00000000	     33.36105338	     -9.70065306	      0.00000000	     44.30448160	      0.77325908	     -4.04076960	      0.00000000	      0.00000000	    -89.96746864	     10.81318959	      7.10081575	    -89.90216174	     22.74195058	    -18.55598694	    114.31519102	     42.89484717	      0.00000000	      4.97587322	     -3.45145476	      6.01378069	      8.23711170	      0.15724751	     42.89484717	      0.00000000	      4.97587322
      3.14000000	     95.63727559	      1.81530400	      5.06504001	      0.00000000	      0.94000000	      0.00000000	     33.36486927	     -9.70098731	      0.00000000	     44.30871340	      0.77333294	     -4.04119515	      0.00000000	      0.00000000	     33.36486927	     -9.70098731	      0.00000000	     44.30871340	      0.77333294	     -4.04119515	      0.00000000	      0.00000000	    -89.96678521	     10.74425874	      7.16817855	    -89.89324032	     22.90349638	    -18.62351142	    117.74790794	     42.89671117	      0.00000000	      4.97592092	     -3.47555380	      5.87153137	      8.22106952	      0.16095291	     42.89671117	      0.00000000	      4.97592092
      3.16000000	     95.64445228	      1.77009813	      5.07452080	      0.00000000	      0.94000000	      0.00000000	     33.36885056	     -9.70133504	      0.00000000	     44.31313581	      0.77341012	     -4.04163888	      0.00000000	      0.00000000	     33.36885056	     -9.70133504	      0.00000000	     44.31313581	      0.77341012	     -4.04163888	      0.00000000	      0.00000000	    -89.96665596	     10.75124844	      7.18837307	    -89.89059603	     23.23347152	    -18.33760241	    121.47404732	     42.89865154	      0.00000000	      4.97597046	     -3.43621071	      5.80018514	      8.20389221	      0.16073821	     42.89865154	      0.00000000	      4.97597046
      3.18000000	     95.70980592	      1.73857688	      5.08512442	      0.00000000	      0.94000000	      0.00000000	     33.37342131	     -9.70173477	      0.00000000	     44.31820546	      0.77349860	     -4.04214850	      0.00000000	      0.00000000	     33.37342131	     -9.70173477	      0.00000000	     44.31820546	      0.77349860	     -4.04214850	      0.00000000	      0.00000000	    -89.96632534	     10.72327216	      7.22789336	    -89.88226332	     23.53300172	    -18.22041363	    125.14970833	     42.90088172	      0.00000000	      4.97602741	     -3.48766411	      5.71172642	      8.25265309	      0.16059697	     42.90088172	      0.00000000	      4.97602741
      3.20000000	     95.77488635	      1.73175553	      5.10001629	      0.00000000	      0.94000000	      0.00000000	     33.37790273	     -9.70212622	      0.00000000	     44.32317721	      0.77358538	     -4.04264806	      0.00000000	      0.00000000	     33.37790273	     -9.70212622	      0.00000000	     44.32317721	      0.77358538	     -4.04264806	      0.00000000	      0.00000000	    -89.96597154	     10.72327918	      7.25219961	    -89.87225348	     23.91509941	    -18.08941881	    128.92922597	     42.90306642	      0.00000000	      4.97608312	     -3.54846777	      5.67033553	      8.27351645	      0.16376505	     42.90306642	      0.00000000	      4.97608312
      3.22000000	     95.83047912	      1.73984138	      5.10999673	      0.00000000	      0.94000000	      0.00000000	     33.38277172	     -9.70255017	      0.00000000	     44.32858916	      0.77367983	     -4.04319046	      0.00000000	      0.00000000	     33.38277172	     -9.70255017	      0.00000000	     44.32858916	      0.77367983	     -4.04319046	      0.00000000	      0.00000000	    -89.96556309	     10.73084864	      7.25605054	    -89.86093035	     24.39366741	    -17.68629240	    133.08743620	     42.90543403	      0.00000000	      4.97614334	     -3.59630665	      5.64952072	      8.26086339	      0.16669072	     42.90543403	      0.00000000	      4.97614334
      3.24000000	     95.93144131	      1.74799947	      5.11459145	      0.00000000	      0.94000000	      0.00000000	     33.38785651	     -9.70299387	      0.00000000	     44.33422750	      0.77377824	     -4.04375726	      0.00000000	      0.00000000	     33.38785651	     -9.70299387	      0.00000000	     44.33422750	      0.77377824	     -4.04375726	      0.00000000	      0.00000000	    -89.96500694	     10.69518244	      7.25159632	    -89.83869482	     24.51676265	    -17.62025892	    136.98676401	     42.90791127	      0.00000000	      4.97620638	     -3.66075122	      5.58549378	      8.22289875	      0.16817227	     42.90791127	      0.00000000	      4.97620638
      3.26000000	     96.04181049	      1.76288571	      5.11584769	      0.00000000	      0.94000000	      0.00000000	     33.39786186	     -9.70386240	      0.00000000	     44.34532633	      0.77397195	     -4.04487182	      0.00000000	      0.00000000	     33.39786186	     -9.70386240	      0.00000000	     44.34532633	      0.77397195	     -4.04487182	      0.00000000	      0.00000000	    -89.96426775	     10.67676957	      7.28251599	    -89.79871043	     24.60694008	    -17.47572698	    140.78395888	     42.91276794	      0.00000000	      4.97632909	     -3.73761348	      5.53084973	      8.22135839	      0.16609780	     42.91276794	      0.00000000	      4.97632909
      3.28000000	     96.09408018	      1.77989678	      5.10473682	      0.00000000	      0.94000000	      0.00000000	     33.41018911	     -9.70493214	      0.00000000	     44.35899008	      0.77421043	     -4.04624514	      0.00000000	      0.00000000	     33.41018911	     -9.70493214	      0.00000000	     44.35899008	      0.77421043	     -4.04624514	      0.00000000	      0.00000000	    -89.96375622	     10.62238667	      7.33918289	    -89.77507325	     24.40914594	    -17.11570759	    144.68440647	     42.91875097	      0.00000000	      4.97648006	     -3.81206978	      5.47489433	      8.28330228	      0.16749242	     42.91875097	      0.00000000	      4.97648006
      3.30000000	     96.20806517	      1.80718351	      5.10457144	      0.00000000	      0.94000000	      0.00000000	     33.42126886	     -9.70589187	      0.00000000	     44.37126620	      0.77442469	     -4.04747928	      0.00000000	      0.00000000	     33.42126886	     -9.70589187	      0.00000000	     44.37126620	      0.77442469	     -4.04747928	      0.00000000	      0.00000000	    -89.96312377	     10.62763782	      7.36937331	    -89.71390265	     24.03859774	    -16.96785740	    148.49156699	     42.92412202	      0.00000000	      4.97661516	     -3.97912949	      5.46065901	      8.27210689	      0.16981111	     42.92412202	      0.00000000	      4.97661516
      3.32000000	     96.50926285	      1.79459216	      5.09649656	      0.00000000	      0.94000000	      0.00000000	     33.42919875	     -9.70657894	      0.00000000	     44.38004271	      0.77457787	     -4.04836275	      0.00000000	      0.00000000	     33.42919875	     -9.70657894	      0.00000000	     44.38004271	      0.77457787	     -4.04836275	      0.00000000	      0.00000000	    -89.96162169	     10.46624548	      7.48986523	    -88.87623603	     23.39218344	    -17.32501926	    149.87548709	     42.92796749	      0.00000000	      4.97671180	     -4.29539602	      5.25666490	      8.21665991	      0.17128967	     42.92796749	      0.00000000	      4.97671180
      3.34000000	     96.57568760	      1.85039811	      5.15351991	      0.00000000	      0.94000000	      0.00000000	     34.18325262	     -9.75355213	      0.00000000	     45.21517590	      0.78915369	     -4.12790758	      0.00000000	      0.00000000	     34.18325262	     -9.75355213	      0.00000000	     45.21517590	      0.78915369	     -4.12790758	      0.00000000	      0.00000000	    -89.96174144	     10.49927670	      7.40864568	    -86.88720239	     22.34298756	    -18.18694960	    149.94504026	     43.21341728	      0.00000000	      4.98189989	     -4.34312915	      5.23111013	      8.04790503	      0.16372317	     43.21341728	      0.00000000	      4.98189989
